# xmcd CD database file
#
# Track frame offsets:
#	187
#	17697
#	32820
#	50115
#	63497
#	80807
#	96380
#	116182
#	131340
#	149902
#	173147
#	188792
#	204680
#
# Disc length: 2951 seconds
#
# Revision: 0
# Processed by: cddbd v1.5.2PL0 Copyright (c) Steve Scherf et al.
# Submitted via: CDex 1.70beta2
#
DISCID=cb0b850d
DTITLE=Trisha Yearwood - Where Your Road Leads
DYEAR=1998
DGENRE=Country
TTITLE0=There Goes My Baby
TTITLE1=Never Let You Go Again
TTITLE2=That Ain't the Way I Heard It
TTITLE3=Powerful Thing
TTITLE4=Love Wouldn't Lie to Me
TTITLE5=Wouldn't Any Woman
TTITLE6=I'll Still Love You More
TTITLE7=Heart Like a Sad Song
TTITLE8=I Don't Want to Be the One
TTITLE9=Bring Me All Your Lovin'
TTITLE10=Where Your Road Leads (Duet with Garth Brooks)
TTITLE11=One More Chance
TTITLE12=I Have a Love
EXTD=YEAR: 1998
EXTT0=
EXTT1=
EXTT2=
EXTT3=
EXTT4=
EXTT5=
EXTT6=
EXTT7=
EXTT8=
EXTT9=
EXTT10=
EXTT11=
EXTT12=
PLAYORDER=
